<?xml version="1.0" standalone="no"?>
<!DOCTYPE svg PUBLIC "-//W3C//DTD SVG 20010904//EN"
 "http://www.w3.org/TR/2001/REC-SVG-20010904/DTD/svg10.dtd">
<svg version="1.0" xmlns="http://www.w3.org/2000/svg"
 width="789.000000pt" height="182.000000pt" viewBox="0 0 789.000000 182.000000"
 preserveAspectRatio="xMidYMid meet">

<g transform="translate(0.000000,182.000000) scale(0.100000,-0.100000)"
fill="white" stroke="none">
<path d="M3090 1655 c-381 -40 -808 -143 -1460 -352 l-235 -75 -152 4 -153 4
-34 33 c-26 25 -46 35 -80 38 -87 10 -146 -36 -146 -114 0 -38 5 -50 34 -79
29 -29 41 -34 79 -34 55 0 90 12 129 45 29 24 34 25 192 25 l163 0 259 84
c600 195 959 284 1332 331 186 24 520 17 677 -14 336 -65 669 -219 1110 -514
l100 -67 -204 0 -204 0 -102 64 c-185 117 -372 201 -529 241 -38 9 -134 25
-212 35 -138 17 -146 19 -205 59 -68 45 -85 49 -135 25 -49 -23 -74 -59 -74
-107 0 -32 7 -46 39 -78 57 -58 116 -54 186 11 l30 29 117 -14 c161 -19 231
-33 318 -61 93 -31 380 -170 380 -184 0 -13 -312 -13 -1205 0 -374 5 -1067 14
-1540 21 l-860 12 -49 43 c-56 51 -105 59 -150 23 -66 -52 -70 -125 -10 -178
52 -46 113 -42 171 12 22 20 30 20 435 14 227 -4 742 -12 1143 -18 402 -6 743
-14 758 -17 26 -7 34 -21 80 -138 68 -169 124 -262 212 -349 145 -143 324
-214 665 -262 106 -14 208 -17 670 -18 l545 0 29 -23 c49 -38 97 -47 139 -27
44 21 77 70 77 115 0 24 -10 42 -39 71 -33 34 -45 39 -84 39 -39 0 -51 -6 -96
-46 l-51 -46 -577 5 c-599 4 -670 9 -848 53 -257 63 -429 205 -536 441 -32 69
-69 169 -69 185 0 12 128 8 179 -5 24 -7 48 -19 52 -27 4 -8 22 -45 39 -82 63
-138 180 -229 361 -282 208 -60 480 -78 1163 -78 l530 -1 39 -28 c72 -52 153
-34 193 43 21 40 11 87 -24 121 -64 62 -135 56 -196 -15 l-35 -40 -633 5
c-511 4 -657 8 -758 21 -325 43 -480 117 -557 263 -17 32 -34 69 -38 82 l-7
24 723 -7 c1370 -13 1610 -23 1969 -81 309 -51 514 -105 725 -193 137 -57 450
-216 610 -309 145 -85 219 -123 239 -123 20 0 31 37 16 55 -13 15 -229 146
-405 245 -579 324 -1061 439 -1978 469 l-278 9 -207 135 c-489 317 -748 441
-1064 511 -204 45 -492 62 -688 41z m308 -348 c16 -19 -14 -59 -40 -55 -26 4
-43 30 -35 52 8 20 60 22 75 3z m-2410 -89 c35 -35 -11 -82 -54 -53 -38 24
-25 65 21 65 12 0 26 -5 33 -12z m-394 -204 c20 -19 5 -54 -24 -54 -29 0 -42
31 -23 52 20 22 27 22 47 2z m5007 -510 c19 -23 -1 -49 -37 -49 -30 0 -42 20
-30 51 7 19 50 18 67 -2z m-268 -295 c17 -28 1 -49 -37 -49 -26 0 -36 5 -41
20 -14 44 53 68 78 29z"/>
<path d="M220 879 c-97 -38 -115 -145 -34 -208 44 -35 93 -28 147 19 l45 40
259 0 c324 0 887 -17 1058 -31 172 -14 391 -52 490 -84 200 -66 321 -150 442
-309 97 -128 123 -156 144 -156 29 0 31 17 10 65 -31 70 -78 132 -176 234
-140 145 -244 203 -467 260 -257 66 -500 83 -1358 96 l-415 7 -35 33 c-40 37
-74 48 -110 34z m60 -98 c7 -15 6 -24 -6 -36 -19 -18 -33 -16 -48 7 -7 12 -6
21 3 32 18 22 38 20 51 -3z"/>
<path d="M6150 465 c-111 -27 -224 -89 -308 -169 -58 -55 -125 -153 -118 -173
12 -30 60 -2 146 86 70 72 100 95 170 130 106 52 180 65 330 57 112 -5 118 -7
210 -52 81 -40 108 -61 181 -136 60 -61 96 -90 118 -94 41 -9 41 13 0 77 -81
127 -246 238 -406 273 -87 19 -246 20 -323 1z"/>
<path d="M1755 416 c-79 -18 -177 -60 -242 -103 -58 -38 -155 -138 -178 -184
l-16 -29 36 0 c30 0 46 10 100 60 134 124 247 176 406 187 190 13 329 -40 492
-186 51 -46 75 -61 97 -61 18 0 30 5 30 13 0 18 -100 136 -149 175 -49 40
-186 105 -254 121 -78 19 -254 23 -322 7z"/>
</g>
</svg>
